<svg width="90" height="90" viewBox="0 0 90 90" fill="none" xmlns="http://www.w3.org/2000/svg">
<rect x="15" y="15" width="60" height="60" rx="30" fill="url(#fav_grad)"/>
<path d="M43.9111 53.61H34.7297C34.0469 53.61 33.392 53.3387 32.9092 52.8559C32.4264 52.373 32.1551 51.7182 32.1551 51.0354V34.7297C32.1551 34.0469 32.4264 33.392 32.9092 32.9092C33.392 32.4264 34.0469 32.1551 34.7297 32.1551H51.0354C51.7182 32.1551 52.3731 32.4264 52.8559 32.9092C53.3387 33.392 53.61 34.0469 53.61 34.7297V42.8825C53.6157 43.0547 53.6893 43.2175 53.8145 43.3357C53.9398 43.4539 54.1067 43.5178 54.2789 43.5136C54.8161 43.5119 55.3464 43.6351 55.828 43.8732C55.928 43.9245 56.0395 43.949 56.1518 43.9443C56.2641 43.9397 56.3732 43.906 56.4685 43.8465C56.5639 43.7871 56.6422 43.704 56.6958 43.6052C56.7495 43.5065 56.7766 43.3956 56.7746 43.2832V34.7297C56.7746 33.9765 56.6261 33.2306 56.3375 32.5349C56.049 31.8391 55.6261 31.207 55.093 30.6748C54.56 30.1427 53.9272 29.7208 53.231 29.4334C52.5347 29.146 51.7886 28.9988 51.0354 29H34.7297C33.2101 29 31.7527 29.6037 30.6782 30.6782C29.6037 31.7527 29 33.2101 29 34.7297V51.0354C29 52.555 29.6037 54.0124 30.6782 55.0869C31.7527 56.1614 33.2101 56.7651 34.7297 56.7651H45.2363C45.3654 56.7652 45.4916 56.7271 45.5991 56.6556C45.7065 56.584 45.7904 56.4822 45.84 56.363C45.8896 56.2439 45.9028 56.1126 45.8779 55.986C45.853 55.8593 45.7911 55.7428 45.7001 55.6513C45.2092 55.2009 44.8114 54.6585 44.5295 54.0548C44.4843 53.9263 44.4008 53.8147 44.2902 53.7352C44.1797 53.6556 44.0473 53.6119 43.9111 53.61Z" fill="white"/>
<path d="M57.942 54.8089L60.8005 53.6825C60.8594 53.6592 60.9099 53.6188 60.9454 53.5665C60.981 53.5142 61.0001 53.4524 61.0001 53.3891C61.0001 53.3258 60.981 53.264 60.9454 53.2117C60.9099 53.1593 60.8594 53.1189 60.8005 53.0956L57.942 51.9693C57.4359 51.7692 56.9763 51.4674 56.5916 51.0827C56.2068 50.6979 55.9051 50.2383 55.705 49.7323L54.5786 46.8927C54.5552 46.834 54.5148 46.7836 54.4624 46.7482C54.4101 46.7128 54.3484 46.6938 54.2852 46.6939C54.222 46.6938 54.1602 46.7128 54.1079 46.7482C54.0556 46.7836 54.0151 46.834 53.9918 46.8927L52.8654 49.7323C52.6658 50.2386 52.3642 50.6985 51.9794 51.0833C51.5946 51.4681 51.1347 51.7697 50.6284 51.9693L47.7888 53.0956C47.7299 53.1189 47.6794 53.1593 47.6438 53.2117C47.6083 53.264 47.5892 53.3258 47.5892 53.3891C47.5892 53.4524 47.6083 53.5142 47.6438 53.5665C47.6794 53.6188 47.7299 53.6592 47.7888 53.6825L50.6284 54.8089C51.1347 55.0085 51.5946 55.31 51.9794 55.6949C52.3642 56.0797 52.6658 56.5396 52.8654 57.0459L53.9918 59.8855C54.0146 59.9448 54.0549 59.9958 54.1072 60.0318C54.1596 60.0678 54.2216 60.0872 54.2852 60.0874C54.3487 60.0872 54.4108 60.0678 54.4631 60.0318C54.5155 59.9958 54.5557 59.9448 54.5786 59.8855L55.705 57.0459C55.9051 56.5398 56.2068 56.0802 56.5916 55.6955C56.9763 55.3107 57.4359 55.009 57.942 54.8089Z" fill="white"/>
<path d="M44.4667 47.4916H41.2984C41.1351 47.4916 41.0026 47.3592 41.0026 47.1958V44.3233H38.1301C37.9668 44.3233 37.8344 44.1909 37.8344 44.0275V40.8593C37.8344 40.6959 37.9668 40.5635 38.1301 40.5635H41.0026V37.691C41.0026 37.5276 41.1351 37.3952 41.2984 37.3952H44.4667C44.63 37.3952 44.7625 37.5276 44.7625 37.691V40.5635H47.635C47.7983 40.5635 47.9307 40.6959 47.9307 40.8593V44.0275C47.9307 44.1909 47.7983 44.3233 47.635 44.3233H44.7625V47.1958C44.7625 47.3592 44.63 47.4916 44.4667 47.4916Z" fill="white"/>
<defs>
<linearGradient id="fav_grad" x1="45" y1="15" x2="45" y2="75" gradientUnits="userSpaceOnUse">
<stop stop-color="#18B0FF"/>
<stop offset="1" stop-color="#1E6EFF"/>
</linearGradient>
</defs>
</svg>
